<svg width="22" height="22" viewBox="0 0 22 22" fill="none" xmlns="http://www.w3.org/2000/svg">
<path opacity="0.4" d="M15.4151 0.166748H19.0833C20.6024 0.166748 21.8333 1.40809 21.8333 2.94004V6.63915C21.8333 8.1711 20.6024 9.41244 19.0833 9.41244H15.4151C13.896 9.41244 12.6651 8.1711 12.6651 6.63915V2.94004C12.6651 1.40809 13.896 0.166748 15.4151 0.166748Z" fill="white"/>
<path fill-rule="evenodd" clip-rule="evenodd" d="M2.91672 0.166748H6.58485C8.10398 0.166748 9.33492 1.40809 9.33492 2.94004V6.63915C9.33492 8.1711 8.10398 9.41244 6.58485 9.41244H2.91672C1.3976 9.41244 0.166656 8.1711 0.166656 6.63915V2.94004C0.166656 1.40809 1.3976 0.166748 2.91672 0.166748ZM2.91672 12.5877H6.58485C8.10398 12.5877 9.33492 13.8291 9.33492 15.361V19.0601C9.33492 20.591 8.10398 21.8334 6.58485 21.8334H2.91672C1.3976 21.8334 0.166656 20.591 0.166656 19.0601V15.361C0.166656 13.8291 1.3976 12.5877 2.91672 12.5877ZM19.0833 12.5877H15.4151C13.896 12.5877 12.6651 13.8291 12.6651 15.361V19.0601C12.6651 20.591 13.896 21.8334 15.4151 21.8334H19.0833C20.6024 21.8334 21.8333 20.591 21.8333 19.0601V15.361C21.8333 13.8291 20.6024 12.5877 19.0833 12.5877Z" fill="white"/>
</svg>
