<svg width="253" height="43" viewBox="0 0 253 43" fill="none" xmlns="http://www.w3.org/2000/svg">
<path d="M7.00361 15.5365L10.7972 17.1396C11.2512 16.2328 11.7213 15.3584 12.2077 14.5164C12.694 13.6744 13.229 12.8323 13.8127 11.9903L11.0891 11.4559L7.00361 15.5365ZM13.91 19.5686L19.4545 25.0579C20.8163 24.5398 22.2754 23.7463 23.8317 22.6776C25.3881 21.6089 26.8472 20.3944 28.209 19.0342C30.4787 16.7672 32.2542 14.2495 33.5356 11.4812C34.8157 8.71157 35.3747 6.16086 35.2126 3.82909C32.8781 3.66716 30.3166 4.22549 27.5281 5.50408C24.7396 6.78397 22.2105 8.55741 19.9408 10.8244C18.579 12.1846 17.3631 13.642 16.2931 15.1965C15.2231 16.751 14.4287 18.2084 13.91 19.5686ZM22.5672 16.411C21.8214 15.6661 21.4486 14.7509 21.4486 13.6653C21.4486 12.581 21.8214 11.6664 22.5672 10.9216C23.313 10.1767 24.237 9.80426 25.3395 9.80426C26.4419 9.80426 27.366 10.1767 28.1117 10.9216C28.8575 11.6664 29.2304 12.581 29.2304 13.6653C29.2304 14.7509 28.8575 15.6661 28.1117 16.411C27.366 17.1558 26.4419 17.5283 25.3395 17.5283C24.237 17.5283 23.313 17.1558 22.5672 16.411ZM23.4913 32.0047L27.5767 27.9241L27.0417 25.2037C26.1987 25.7866 25.3557 26.3126 24.5126 26.7815C23.6696 27.2518 22.7942 27.7136 21.8863 28.167L23.4913 32.0047ZM38.7144 0.282853C39.3305 4.20153 38.9498 8.01462 37.5724 11.7221C36.1938 15.431 33.8184 18.9694 30.4463 22.3375L31.419 27.1468C31.5487 27.7945 31.5163 28.4261 31.3217 29.0414C31.1272 29.6567 30.8029 30.1911 30.349 30.6445L22.1781 38.8057L18.0927 29.2357L9.77588 20.9288L0.194545 16.8482L8.31679 8.68695C8.77073 8.23355 9.31416 7.90969 9.94707 7.71538C10.5787 7.52107 11.2187 7.48868 11.8672 7.61822L16.6822 8.58979C20.0543 5.22168 23.5886 2.84133 27.2849 1.44874C30.9813 0.056153 34.7911 -0.332476 38.7144 0.282853ZM3.64771 27.0982C4.78256 25.9647 6.16837 25.3896 7.80514 25.3727C9.4432 25.3572 10.8297 25.9162 11.9645 27.0497C13.0993 28.1832 13.6583 29.5673 13.6415 31.2022C13.6259 32.8383 13.0507 34.2231 11.9159 35.3566C11.1053 36.1662 9.75188 36.8625 7.85572 37.4455C5.95826 38.0284 3.33969 38.5466 0 39C0.453938 35.6643 0.972724 33.0488 1.55636 31.1536C2.13999 29.2597 2.83711 27.9079 3.64771 27.0982ZM6.41998 29.8186C6.09574 30.1425 5.7715 30.7339 5.44725 31.5927C5.12301 32.4503 4.89604 33.3163 4.76635 34.1907C5.6418 34.0612 6.50947 33.8429 7.36936 33.5359C8.22795 33.2276 8.81936 32.9115 9.14361 32.5876C9.53269 32.199 9.74345 31.7294 9.77588 31.1788C9.8083 30.6283 9.62997 30.1587 9.24088 29.7701C8.85179 29.3814 8.38164 29.1949 7.83043 29.2104C7.27922 29.2273 6.80907 29.43 6.41998 29.8186Z" fill="#FFC300"/>
<path d="M64.972 35H66.876L57.662 11.2H55.758L46.51 35H48.414L50.726 28.948H62.66L64.972 35ZM51.406 27.248L56.71 13.41L62.014 27.248H51.406ZM70.9908 22.454C70.9908 20.414 72.8608 19.258 75.0708 19.258C76.9408 19.258 78.7088 20.074 79.4228 21.842L80.8508 21.026C79.9328 18.952 77.8248 17.626 75.0708 17.626C71.6028 17.626 69.2908 19.768 69.2908 22.454C69.2908 28.574 79.5928 25.922 79.5928 30.546C79.5928 32.688 77.5868 33.742 75.2068 33.742C72.6568 33.742 70.8208 32.586 70.2088 30.75L68.7468 31.6C69.5628 33.776 71.8068 35.374 75.2068 35.374C78.8448 35.374 81.2928 33.334 81.2928 30.546C81.2928 24.324 70.9908 27.01 70.9908 22.454ZM85.5338 22.454C85.5338 20.414 87.4038 19.258 89.6138 19.258C91.4838 19.258 93.2518 20.074 93.9658 21.842L95.3938 21.026C94.4758 18.952 92.3678 17.626 89.6138 17.626C86.1458 17.626 83.8338 19.768 83.8338 22.454C83.8338 28.574 94.1358 25.922 94.1358 30.546C94.1358 32.688 92.1298 33.742 89.7498 33.742C87.1998 33.742 85.3638 32.586 84.7518 30.75L83.2898 31.6C84.1058 33.776 86.3498 35.374 89.7498 35.374C93.3878 35.374 95.8358 33.334 95.8358 30.546C95.8358 24.324 85.5338 27.01 85.5338 22.454ZM107.102 17.626C101.9 17.626 98.296 21.502 98.296 26.5C98.296 31.634 102.002 35.374 107.238 35.374C110.604 35.374 113.256 33.844 114.65 31.532L113.154 30.648C112.168 32.45 110.06 33.742 107.272 33.742C103.396 33.742 100.472 31.226 100.064 27.384H115.466C115.466 27.112 115.5 26.84 115.5 26.568C115.5 21.91 112.27 17.626 107.102 17.626ZM107.102 19.258C110.434 19.258 113.358 21.57 113.732 25.718H100.064C100.404 21.944 103.226 19.258 107.102 19.258ZM127.679 19.666V18H122.613V13.24L120.879 13.75V18H117.139V19.666H120.879V30.716C120.879 34.592 123.225 35.68 127.679 35V33.47C124.211 33.776 122.613 33.708 122.613 30.716V19.666H127.679ZM131.885 22.454C131.885 20.414 133.755 19.258 135.965 19.258C137.835 19.258 139.603 20.074 140.317 21.842L141.745 21.026C140.827 18.952 138.719 17.626 135.965 17.626C132.497 17.626 130.185 19.768 130.185 22.454C130.185 28.574 140.487 25.922 140.487 30.546C140.487 32.688 138.481 33.742 136.101 33.742C133.551 33.742 131.715 32.586 131.103 30.75L129.641 31.6C130.457 33.776 132.701 35.374 136.101 35.374C139.739 35.374 142.187 33.334 142.187 30.546C142.187 24.324 131.885 27.01 131.885 22.454Z" fill="#FFC300"/>
<path d="M154.695 35H145.555V10.2727H154.683C157.202 10.2727 159.372 10.7678 161.191 11.7578C163.018 12.7398 164.426 14.1565 165.417 16.0078C166.407 17.8511 166.902 20.0566 166.902 22.6243C166.902 25.2 166.407 27.4136 165.417 29.2649C164.435 31.1162 163.03 32.5369 161.203 33.527C159.376 34.509 157.206 35 154.695 35ZM151.532 29.9048H154.466C155.85 29.9048 157.021 29.6714 157.979 29.2045C158.945 28.7296 159.673 27.9609 160.164 26.8984C160.663 25.8279 160.913 24.4032 160.913 22.6243C160.913 20.8454 160.663 19.4287 160.164 18.3743C159.665 17.3118 158.929 16.5471 157.955 16.0803C156.989 15.6053 155.798 15.3679 154.381 15.3679H151.532V29.9048ZM170.391 35V16.4545H176.295V35H170.391ZM173.349 14.2933C172.52 14.2933 171.808 14.0196 171.212 13.4723C170.616 12.9169 170.319 12.2488 170.319 11.468C170.319 10.6953 170.616 10.0353 171.212 9.48793C171.808 8.93253 172.52 8.65483 173.349 8.65483C174.186 8.65483 174.899 8.93253 175.486 9.48793C176.082 10.0353 176.38 10.6953 176.38 11.468C176.38 12.2488 176.082 12.9169 175.486 13.4723C174.899 14.0196 174.186 14.2933 173.349 14.2933ZM188.698 42.3409C186.935 42.3409 185.426 42.0954 184.17 41.6044C182.915 41.1134 181.929 40.4413 181.212 39.5881C180.496 38.7348 180.065 37.7689 179.92 36.6903L185.51 36.3764C185.615 36.7547 185.808 37.0848 186.09 37.3665C186.38 37.6482 186.754 37.8655 187.213 38.0185C187.68 38.1714 188.227 38.2479 188.855 38.2479C189.845 38.2479 190.662 38.0064 191.306 37.5234C191.958 37.0485 192.284 36.2154 192.284 35.0241V31.7642H192.079C191.845 32.3357 191.491 32.8468 191.016 33.2976C190.541 33.7483 189.95 34.1025 189.241 34.3601C188.541 34.6177 187.736 34.7464 186.827 34.7464C185.474 34.7464 184.235 34.4325 183.108 33.8047C181.989 33.1688 181.091 32.1868 180.415 30.8587C179.747 29.5225 179.413 27.804 179.413 25.7031C179.413 23.5379 179.759 21.755 180.452 20.3544C181.144 18.9458 182.049 17.9034 183.168 17.2273C184.295 16.5511 185.506 16.2131 186.802 16.2131C187.776 16.2131 188.609 16.3821 189.302 16.7202C190.002 17.0502 190.577 17.4768 191.028 18C191.479 18.5232 191.821 19.0665 192.055 19.63H192.224V16.4545H198.104V35.0724C198.104 36.642 197.709 37.9661 196.92 39.0447C196.131 40.1233 195.029 40.9403 193.612 41.4957C192.195 42.0592 190.557 42.3409 188.698 42.3409ZM188.879 30.4482C189.595 30.4482 190.207 30.259 190.714 29.8807C191.221 29.5024 191.612 28.959 191.885 28.2507C192.159 27.5424 192.296 26.6932 192.296 25.7031C192.296 24.697 192.159 23.8317 191.885 23.1072C191.62 22.3748 191.229 21.8113 190.714 21.4169C190.207 21.0225 189.595 20.8253 188.879 20.8253C188.147 20.8253 187.527 21.0265 187.02 21.429C186.513 21.8314 186.126 22.3989 185.861 23.1314C185.603 23.8558 185.474 24.7131 185.474 25.7031C185.474 26.6932 185.607 27.5424 185.873 28.2507C186.138 28.959 186.521 29.5024 187.02 29.8807C187.527 30.259 188.147 30.4482 188.879 30.4482ZM201.868 35V16.4545H207.772V35H201.868ZM204.826 14.2933C203.997 14.2933 203.284 14.0196 202.689 13.4723C202.093 12.9169 201.795 12.2488 201.795 11.468C201.795 10.6953 202.093 10.0353 202.689 9.48793C203.284 8.93253 203.997 8.65483 204.826 8.65483C205.663 8.65483 206.375 8.93253 206.963 9.48793C207.558 10.0353 207.856 10.6953 207.856 11.468C207.856 12.2488 207.558 12.9169 206.963 13.4723C206.375 14.0196 205.663 14.2933 204.826 14.2933ZM221.998 16.4545V20.8011H210.298V16.4545H221.998ZM212.749 12.0114H218.653V29.1683C218.653 29.5305 218.71 29.8243 218.822 30.0497C218.943 30.267 219.116 30.424 219.341 30.5206C219.567 30.6091 219.836 30.6534 220.15 30.6534C220.376 30.6534 220.613 30.6333 220.863 30.593C221.12 30.5447 221.314 30.5045 221.442 30.4723L222.336 34.7344C222.054 34.8149 221.656 34.9155 221.14 35.0362C220.633 35.157 220.026 35.2334 219.317 35.2656C217.933 35.33 216.746 35.169 215.756 34.7827C214.773 34.3883 214.021 33.7765 213.498 32.9474C212.983 32.1184 212.733 31.076 212.749 29.8203V12.0114ZM230.238 35.3139C229.055 35.3139 228.004 35.1167 227.087 34.7223C226.177 34.3198 225.457 33.7161 224.926 32.9112C224.402 32.0982 224.141 31.08 224.141 29.8565C224.141 28.8262 224.322 27.9569 224.684 27.2486C225.046 26.5402 225.545 25.9647 226.181 25.522C226.817 25.0793 227.55 24.7453 228.379 24.5199C229.208 24.2865 230.093 24.1295 231.035 24.049C232.089 23.9524 232.939 23.8518 233.583 23.7472C234.227 23.6345 234.693 23.4775 234.983 23.2763C235.281 23.067 235.43 22.7732 235.43 22.3949V22.3345C235.43 21.7147 235.217 21.2358 234.79 20.8977C234.363 20.5597 233.788 20.3906 233.063 20.3906C232.283 20.3906 231.655 20.5597 231.18 20.8977C230.705 21.2358 230.403 21.7027 230.274 22.2983L224.829 22.1051C224.99 20.9782 225.405 19.9721 226.073 19.0866C226.749 18.1932 227.674 17.4929 228.85 16.9858C230.033 16.4706 231.454 16.2131 233.112 16.2131C234.295 16.2131 235.386 16.3539 236.384 16.6357C237.382 16.9093 238.251 17.3118 238.992 17.843C239.732 18.3662 240.304 19.0102 240.706 19.7749C241.117 20.5395 241.322 21.4129 241.322 22.3949V35H235.768V32.4162H235.623C235.293 33.044 234.87 33.5753 234.355 34.0099C233.848 34.4446 233.249 34.7706 232.556 34.9879C231.872 35.2053 231.099 35.3139 230.238 35.3139ZM232.061 31.4503C232.697 31.4503 233.269 31.3215 233.776 31.0639C234.291 30.8063 234.701 30.4522 235.007 30.0014C235.313 29.5426 235.466 29.0114 235.466 28.4077V26.6449C235.297 26.7334 235.092 26.8139 234.85 26.8864C234.617 26.9588 234.359 27.0272 234.078 27.0916C233.796 27.156 233.506 27.2124 233.208 27.2607C232.91 27.3089 232.625 27.3532 232.351 27.3935C231.796 27.482 231.321 27.6188 230.926 27.804C230.54 27.9891 230.242 28.2306 230.033 28.5284C229.832 28.8182 229.731 29.1643 229.731 29.5668C229.731 30.1785 229.948 30.6454 230.383 30.9673C230.826 31.2893 231.385 31.4503 232.061 31.4503ZM250.836 10.2727V35H244.932V10.2727H250.836Z" fill="#FFD85B"/>
</svg>
